<svg width="1338" height="1426" viewBox="0 0 1338 1426" fill="none" xmlns="http://www.w3.org/2000/svg">
    <path
        d="M832.795 1424.78C803.477 1424.84 744.886 1424.61 715.596 1424.33C686.669 1423.65 627.978 1421.76 598.223 1420.56C583.946 1419.81 556.049 1418.23 542.409 1417.39C527.177 1416.24 496.702 1413.71 481.47 1412.32C467.193 1410.81 439.951 1407.68 426.994 1406.07C411.37 1403.7 378.392 1397.58 368.367 1395.22C362.522 1393.74 348.946 1389.85 342.764 1387.07C338.667 1385.22 332.503 1381.38 330.509 1379.45C329.534 1378.49 328.205 1376.65 327.704 1375.59C327.167 1374.38 327.158 1372.94 327.668 1371.72C328.587 1369.68 332.357 1365.84 335.38 1363.86C341.626 1359.83 353.562 1355.44 362.121 1352.9C371.436 1350.35 402.811 1343.49 419.046 1340.54C432.266 1338.53 459.417 1334.71 473.339 1332.91C488.344 1331.2 519.137 1327.92 534.925 1326.34C562.468 1324.18 619.611 1320.2 649.202 1318.38C678.292 1317.06 736.555 1314.86 765.728 1313.97C795.073 1313.41 853.691 1312.75 882.973 1312.64C912.336 1312.88 970.454 1313.73 999.207 1314.35C1029.07 1315.5 1087.17 1318.18 1115.4 1319.72C1130.06 1320.78 1160.14 1323.17 1175.56 1324.51C1190.12 1326 1217.98 1329.07 1231.28 1330.67C1244.83 1332.55 1276.15 1337.97 1289.88 1340.87C1296.13 1342.33 1310.59 1346.19 1312.46 1346.83C1317.5 1348.58 1325.83 1352.34 1328.94 1354.25C1332 1356.17 1335.84 1359.94 1336.8 1361.96C1337.33 1363.18 1337.35 1364.61 1336.84 1365.83C1335.91 1367.88 1332.15 1371.71 1329.13 1373.7C1322.87 1377.72 1310.94 1382.11 1302.38 1384.65C1293.06 1387.21 1261.69 1394.07 1245.46 1397.02C1232.23 1399.03 1205.09 1402.84 1191.17 1404.65C1176.15 1406.36 1145.36 1409.64 1129.58 1411.21C1102.03 1413.37 1044.9 1417.36 1015.3 1419.19C986.214 1420.5 927.951 1422.69 898.779 1423.58C869.434 1424.14 836.437 1424.73 832.795 1424.78Z"
        fill="#A39DC8" stroke="#A39DC8" stroke-width="1.5936" stroke-linecap="round" stroke-linejoin="round" />
    <path
        d="M540.5 777.5C768 777.5 934.5 708 934.5 708C934.5 708 970 694 1050 794.5C1130 895 1204.5 1139.5 1204.5 1139.5C1204.5 1139.5 1101.4 1162.86 1034.5 1173C963.461 1183.76 851.5 1192 851.5 1192C851.5 1192 631.097 1202.03 498.5 1160C428.193 1137.72 344.5 1101.5 305.5 1072C266.5 1042.5 218.615 1012 171.5 953.5C129.129 900.892 99.0002 890 93.5003 808C88.0003 726 138 698 138 698C138 698 313 777.5 540.5 777.5Z"
        fill="#F5F5F5" />
    <path
        d="M851.5 1192C851.5 1192 631.097 1202.03 498.5 1160C498.5 1160 713.5 1180.5 889.5 1160C1065.5 1139.5 1169.5 1107 1169.5 1107L1204.5 1139.5C1204.5 1139.5 1101.4 1162.86 1034.5 1173C963.461 1183.76 851.5 1192 851.5 1192Z"
        fill="#A39DC8" />
    <path
        d="M540.5 777.5C768 777.5 934.5 708 934.5 708C934.5 708 970 694 1050 794.5C1130 895 1204.5 1139.5 1204.5 1139.5C1204.5 1139.5 1101.4 1162.86 1034.5 1173C963.461 1183.76 851.5 1192 851.5 1192C851.5 1192 631.097 1202.03 498.5 1160C428.193 1137.72 344.5 1101.5 305.5 1072C266.5 1042.5 218.615 1012 171.5 953.5C129.129 900.892 99.0002 890 93.5003 808C88.0003 726 138 698 138 698C138 698 313 777.5 540.5 777.5Z"
        stroke="#2F1000" stroke-width="3.5" />
    <path
        d="M540.5 777.5C768 777.5 889 721.5 889 721.5C889 721.5 832 794.5 832 835.5C832 876.5 851.5 906.5 851.5 906.5C851.5 906.5 738.927 985.735 662 1028.5C585.126 1071.24 458.5 1125 458.5 1125C458.5 1125 364.632 1081.93 308 1048C252.385 1014.68 171.5 953.5 171.5 953.5C129.129 900.892 99.0002 890 93.5003 808C88.0003 726 138 698 138 698C138 698 313 777.5 540.5 777.5Z"
        fill="#F5F5F5" />
    <path
        d="M540.5 777.5C768 777.5 889 721.5 889 721.5C889 721.5 860.963 747.271 847.09 777.5C847.09 777.5 762.438 800.574 707 809C652.958 817.213 567.5 820.5 567.5 820.5V883.5C567.5 883.5 545.157 868.145 535 854.5C526.135 842.592 518 820.5 518 820.5C518 820.5 386.888 809.967 304 795.5C223.813 781.505 111 728.5 111 728.5C115.5 715 138 698 138 698C138 698 313 777.5 540.5 777.5Z"
        fill="#A39DC8" />
    <path
        d="M540.5 777.5C768 777.5 889 721.5 889 721.5C889 721.5 832 794.5 832 835.5C832 876.5 851.5 906.5 851.5 906.5C851.5 906.5 738.927 985.735 662 1028.5C585.126 1071.24 458.5 1125 458.5 1125C458.5 1125 364.632 1081.93 308 1048C252.385 1014.68 171.5 953.5 171.5 953.5C129.129 900.892 99.0002 890 93.5003 808C88.0003 726 138 698 138 698C138 698 313 777.5 540.5 777.5Z"
        stroke="#2F1000" stroke-width="3.5" />
    <path
        d="M1050 794.5C1130 895 1204.5 1139.5 1204.5 1139.5C1204.5 1139.5 1115.8 1105.48 1062.5 1076.5C1005.55 1045.54 924 985 924 985C924 985 871 941 851.5 905C832 869 830.389 858.047 832 826.5C834.286 781.758 884.5 724.5 884.5 724.5L934.5 708C934.5 708 970 694 1050 794.5Z"
        fill="#A39DC8" stroke="#2F1000" stroke-width="3.5" />
    <path
        d="M956.5 146L839.5 96.4999C839.5 96.4999 654.5 35.5 501.5 36.9999C348.5 38.4997 211 117 211 117L104 191.5C104 191.5 58.0001 266 36.0001 332.5C14.0001 399 14.0001 478.5 14.0001 478.5C14.0001 478.5 12.5001 539.5 48.0001 602.5C83.5 665.5 144.5 703 144.5 703C144.5 703 246.207 735.658 313 750C378.476 764.059 482.5 776 482.5 776C482.5 776 674.698 777.203 793.5 750C905.287 724.403 1068.5 647 1068.5 647C1068.5 647 1101 533 1080.5 429.5C1072.49 389.076 1068.5 345.917 1041.5 287C1006.83 211.352 956.5 146 956.5 146Z"
        fill="#F5F5F5" />
    <path
        d="M956.5 146L839.5 96.5C839.5 96.5 795.215 82.6271 767 75.5C738.785 68.3729 695 60 695 60C695 60 678 203 554.5 262C431 321 313 287 313 287L104 191.5C104 191.5 58.0001 266 36.0001 332.5C14.0001 399 14.0001 478.5 14.0001 478.5C14.0001 478.5 12.5001 539.5 48.0001 602.5C83.5 665.5 144.5 703 144.5 703C144.5 703 246.207 735.658 313 750C378.476 764.059 482.5 776 482.5 776C482.5 776 674.698 777.203 793.5 750C905.287 724.403 1068.5 647 1068.5 647C1068.5 647 1101 533 1080.5 429.5C1072.49 389.076 1068.5 345.917 1041.5 287C1006.83 211.352 956.5 146 956.5 146Z"
        fill="#A39DC8" />
    <path
        d="M956.5 146L839.5 96.4999C839.5 96.4999 654.5 35.5 501.5 36.9999C348.5 38.4997 211 117 211 117L104 191.5C104 191.5 58.0001 266 36.0001 332.5C14.0001 399 14.0001 478.5 14.0001 478.5C14.0001 478.5 12.5001 539.5 48.0001 602.5C83.5 665.5 144.5 703 144.5 703C144.5 703 246.207 735.658 313 750C378.476 764.059 482.5 776 482.5 776C482.5 776 674.698 777.203 793.5 750C905.287 724.403 1068.5 647 1068.5 647C1068.5 647 1101 533 1080.5 429.5C1072.49 389.076 1068.5 345.917 1041.5 287C1006.83 211.352 956.5 146 956.5 146Z"
        stroke="#2F1000" stroke-width="3.5" />
    <path
        d="M261.839 738.988C294.368 747.85 326.788 755.168 359.098 760.94L481 775L523 777.5H574.5L627 775L672.711 770.2C802.39 751.322 895.255 715.737 951.306 663.444C953.673 656.943 956.04 650.445 958.408 643.95C993.887 522.993 991.95 402.883 952.599 283.62C950.256 276.536 947.785 269.456 945.187 262.378C941.029 251.069 937.454 241.913 934.461 234.908C931.463 227.903 929.363 223.044 928.161 220.331C927.888 218.82 927.281 217.062 926.34 215.059C925.994 214.319 925.305 212.998 924.273 211.099C923.241 209.199 923.01 207.809 923.581 206.928C936.504 187.007 946.271 167.425 952.881 148.183C970.472 96.9826 965.725 48.1919 938.641 1.81104C902.967 37.1688 868.79 69.7434 836.109 99.535C799.55 132.878 764.866 162.739 732.057 189.119C719.262 199.408 706.751 209.165 694.526 218.392C565.369 315.918 468.106 354.354 402.738 333.697C401.792 333.4 400.86 333.124 399.943 332.869C399.033 332.614 397.209 332.131 394.471 331.421C361.098 321.976 326.524 294.631 290.747 249.385C263.517 214.95 235.589 170.147 206.963 114.977C191.217 84.6271 175.262 51.1419 159.098 14.5216L152.233 15.9602C127.485 24.6039 111.375 46.4437 103.903 81.4798C102.24 89.304 101.005 97.7838 100.198 106.919C98.7286 123.563 98.6891 142.392 100.079 163.407C100.492 169.616 101.026 176.017 101.682 182.609C101.991 185.456 102.298 188.303 102.601 191.149C90.7769 212.631 80.1423 233.558 70.6973 253.928C69.2405 257.067 67.8141 260.193 66.418 263.307C61.1856 274.949 56.3478 286.409 51.9046 297.687C48.8575 305.432 45.9955 313.09 43.3186 320.659C33.9647 347.13 26.8871 372.545 22.0857 396.904C20.9264 402.786 19.9005 408.607 19.0082 414.368C16.2767 432.013 14.7896 449.082 14.5468 465.574C13.8305 515.154 24.3984 559.501 46.2504 598.616C57.6802 619.078 72.1966 638.108 89.7996 655.705C92.1305 658.036 94.519 660.345 96.9652 662.634C106.847 671.866 117.618 680.689 129.279 689.102C135.391 693.509 141.747 697.803 148.345 701.985C168.236 709.53 188.088 716.508 207.901 722.918C210.177 723.652 212.45 724.381 214.72 725.103C216.019 725.516 217.318 725.926 218.617 726.332C220.238 726.842 221.862 727.346 223.488 727.844C236.284 731.795 249.067 735.51 261.839 738.988Z"
        fill="#F5F5F5" />
    <path
        d="M261.839 738.988C294.368 747.85 326.788 755.168 359.098 760.94L481 775L523 777.5H574.5L627 775L672.711 770.2C802.39 751.322 895.255 715.737 951.306 663.444C953.673 656.943 956.04 650.445 958.408 643.95C993.887 522.993 991.95 402.883 952.599 283.62C950.256 276.536 947.785 269.456 945.187 262.378C945.187 262.378 969.463 365.303 966.5 432C963.436 500.955 925 601.5 925 601.5L872.5 568L651.5 598.616H325.5H46.2505C57.6803 619.078 72.1967 638.108 89.7997 655.705C92.1306 658.036 94.5191 660.345 96.9653 662.634C106.847 671.866 117.619 680.689 129.279 689.102C135.391 693.509 141.747 697.803 148.345 701.986C168.236 709.531 188.088 716.508 207.901 722.918C210.177 723.652 212.45 724.381 214.72 725.103C216.019 725.516 217.318 725.926 218.617 726.332C220.238 726.842 221.862 727.346 223.488 727.844C236.284 731.795 249.067 735.51 261.839 738.988Z"
        fill="#A39DC8" />
    <path
        d="M261.839 738.988C294.368 747.85 326.788 755.168 359.098 760.94L481 775L523 777.5H574.5L627 775L672.711 770.2C802.39 751.322 895.255 715.737 951.306 663.444C953.673 656.943 956.04 650.445 958.408 643.95C993.887 522.993 991.95 402.883 952.599 283.62C950.256 276.536 947.785 269.456 945.187 262.378C941.029 251.069 937.454 241.913 934.461 234.908C931.463 227.903 929.363 223.044 928.161 220.331C927.888 218.82 927.281 217.062 926.34 215.059C925.994 214.319 925.305 212.998 924.273 211.099C923.241 209.199 923.01 207.809 923.581 206.928C936.504 187.007 946.271 167.425 952.881 148.183C970.472 96.9826 965.725 48.1919 938.641 1.81104C902.967 37.1688 868.79 69.7434 836.109 99.535C799.55 132.878 764.866 162.739 732.057 189.119C719.262 199.408 706.751 209.165 694.526 218.392C565.369 315.918 468.106 354.354 402.738 333.697C401.792 333.4 400.86 333.124 399.943 332.869C399.033 332.614 397.209 332.131 394.471 331.421C361.098 321.976 326.524 294.631 290.747 249.385C263.517 214.95 235.589 170.147 206.963 114.977C191.217 84.6271 175.262 51.1419 159.098 14.5216L152.233 15.9602C127.485 24.6039 111.375 46.4437 103.903 81.4798C102.24 89.304 101.005 97.7838 100.198 106.919C98.7286 123.563 98.6891 142.392 100.079 163.407C100.492 169.616 101.026 176.017 101.682 182.609C101.991 185.456 102.298 188.303 102.601 191.149C90.7769 212.631 80.1423 233.558 70.6973 253.928C69.2405 257.067 67.8141 260.193 66.418 263.307C61.1856 274.949 56.3478 286.409 51.9046 297.687C48.8575 305.432 45.9955 313.09 43.3186 320.659C33.9647 347.13 26.8871 372.545 22.0857 396.904C20.9264 402.786 19.9005 408.607 19.0082 414.368C16.2767 432.013 14.7896 449.082 14.5468 465.574C13.8305 515.154 24.3984 559.501 46.2504 598.616C57.6802 619.078 72.1966 638.108 89.7996 655.705C92.1305 658.036 94.519 660.345 96.9652 662.634C106.847 671.866 117.618 680.689 129.279 689.102C135.391 693.509 141.747 697.803 148.345 701.985C168.236 709.53 188.088 716.508 207.901 722.918C210.177 723.652 212.45 724.381 214.72 725.103C216.019 725.516 217.318 725.926 218.617 726.332C220.238 726.842 221.862 727.346 223.488 727.844C236.284 731.795 249.067 735.51 261.839 738.988Z"
        stroke="#2F1000" stroke-width="2.6568" stroke-linecap="round" stroke-linejoin="round" />
    <path
        d="M536.555 734.017C528.588 732.833 504.924 728.09 495.245 725.586L343.702 696.386C304.611 703.379 268.009 705.275 233.895 702.077C226.132 701.348 218.493 700.356 210.978 699.099C202.34 697.655 193.87 695.858 185.566 693.709C155.999 686.067 128.605 673.982 103.384 657.453C97.1504 653.368 91.047 649.01 85.0742 644.378C80.2303 640.627 75.4745 636.694 70.8066 632.578L56.4998 614.5L43.9998 592L33.4998 570.5L24.4998 543.5L17.5 513.5L14.5 477.5L15.5 443.5L19.9998 411L26.2498 376.5L36.4998 342L61.9998 273C63.4201 273.164 67.3377 266.184 69.9509 264.8C74.9222 262.205 88.6343 254.639 94.3614 251.98C101.245 248.812 113.427 245.88 121.54 244.896C127.039 244.241 140.314 244.177 146.05 245.361C151.787 246.563 166.273 251.661 173.065 254.347C180.404 257.425 194.516 263.835 201.045 267.067C213.527 273.429 238.021 290.132 249.103 297.689L249.674 298.079C260.327 305.053 282.953 320.104 293.46 328.435C304.195 337.358 323.953 355.85 333.486 364.91C339.049 370.154 343.802 375.453 350.521 383.693C360.209 395.894 379.093 419.885 388.28 431.667C394.617 440.117 404.997 457.453 412.381 470.664C417.589 465.711 433.076 451.207 443.356 441.646C456.795 429.473 474.786 414.614 486.723 404.789C497.695 395.703 518.9 378.358 529.79 370.391C536.717 365.482 574.078 342.473 598.2 327.618L600.554 326.168C608.985 322.608 633.532 312.255 649.648 305.463C659.855 301.211 662.468 300.182 673.576 296.613C683.464 293.426 711.425 285.714 723.344 282.919C737.165 280.069 757.06 276.873 767.767 275.772C778.302 274.879 802.576 274.397 815.059 275.744C821.751 276.473 834.425 278.831 840.416 280.461C846.389 282.1 857.643 286.26 862.914 288.792C868.186 291.332 878.01 297.305 882.572 300.728C887.125 304.17 895.519 311.955 899.371 316.289C903.204 320.632 910.178 330.21 913.311 335.446C916.443 340.699 921.988 352.09 924.41 358.226C929.272 370.627 934.889 394.182 936.756 405.481C938.258 415.688 940.216 438.105 940.607 449.713C940.78 461.75 940.17 487.08 939.396 500.328C938.295 513.977 935.454 539.452 934.034 550.843C932.413 561.605 928.47 585.997 926.149 599.636L923.153 609.197C919.821 613.594 911.143 626.906 902.148 636.867C897.759 641.711 888.126 650.952 882.863 655.359C878.193 659.256 866.301 667.988 861.084 671.411C852.963 676.592 834.862 686.553 825.365 691.051C815.568 695.512 796.812 702.905 783.41 707.54C771.946 711.164 747.818 717.847 735.18 720.888C722.115 723.738 694.9 728.827 680.368 731.122C659.327 734.272 646.279 735.565 626.722 736.967C614.63 737.723 589.4 737.951 578.41 737.686C567.676 737.158 546.734 735.319 536.555 734.017Z"
        fill="#2F1000" />
    <path
        d="M899.371 320.289C898.425 319.224 897.205 317.951 895.835 316.586C887.99 310.886 863.272 300.613 787 300.613C776 300.613 755.5 292.792 649.648 332.435C543.796 372.078 412.381 514 412.381 514C412.381 514 280.478 304.972 146.05 277C115.072 270.554 66.0886 276.487 62.2411 276.969C62.1542 276.998 62.0736 277.009 61.9998 277C61.9998 277 62.0817 276.989 62.2411 276.969C63.824 276.453 67.4736 270.112 69.9509 268.8C74.9222 266.205 88.6343 258.639 94.3614 255.98C101.245 252.812 113.427 249.88 121.54 248.896C127.039 248.241 140.314 248.177 146.05 249.361C151.787 250.563 166.273 255.661 173.065 258.347C180.404 261.425 194.516 267.835 201.045 271.067C213.527 277.429 238.021 294.132 249.103 301.689L249.674 302.079C260.327 309.053 282.953 324.104 293.46 332.435C304.195 341.358 323.953 359.85 333.486 368.91C339.049 374.154 343.802 379.453 350.521 387.693C360.209 399.894 379.093 423.885 388.28 435.667C394.617 444.117 404.997 461.453 412.381 474.664C417.589 469.711 433.076 455.207 443.356 445.646C456.795 433.473 474.786 418.614 486.723 408.789C497.695 399.703 518.9 382.358 529.79 374.391C536.716 369.482 574.076 346.474 598.198 331.619L600.554 330.168C608.985 326.608 633.532 316.255 649.648 309.463C659.855 305.211 662.468 304.182 673.576 300.613C683.464 297.426 711.425 289.714 723.344 286.919C737.165 284.069 757.06 280.873 767.767 279.772C778.302 278.879 802.576 278.397 815.059 279.744C821.751 280.473 834.425 282.831 840.416 284.461C846.389 286.1 857.643 290.26 862.914 292.792C868.186 295.332 878.01 301.305 882.572 304.728C886.006 307.325 891.627 312.392 895.835 316.586C898.846 318.774 899.371 320.289 899.371 320.289Z"
        fill="#A39DC8" />
    <path
        d="M536.555 734.017C528.588 732.833 504.924 728.09 495.245 725.586L343.702 696.386C304.611 703.379 268.009 705.275 233.895 702.077C226.132 701.348 218.493 700.356 210.978 699.099C202.34 697.655 193.87 695.858 185.566 693.709C155.999 686.067 128.605 673.982 103.384 657.453C97.1504 653.368 91.047 649.01 85.0742 644.378C80.2303 640.627 75.4745 636.694 70.8066 632.578L56.4998 614.5L43.9998 592L33.4998 570.5L24.4998 543.5L17.5 513.5L14.5 477.5L15.5 443.5L19.9998 411L26.2498 376.5L36.4998 342L61.9998 273C63.4201 273.164 67.3377 266.184 69.9509 264.8C74.9222 262.205 88.6343 254.639 94.3614 251.98C101.245 248.812 113.427 245.88 121.54 244.896C127.039 244.241 140.314 244.177 146.05 245.361C151.787 246.563 166.273 251.661 173.065 254.347C180.404 257.425 194.516 263.835 201.045 267.067C213.527 273.429 238.021 290.132 249.103 297.689L249.674 298.079C260.327 305.053 282.953 320.104 293.46 328.435C304.195 337.358 323.953 355.85 333.486 364.91C339.049 370.154 343.802 375.453 350.521 383.693C360.209 395.894 379.093 419.885 388.28 431.667C394.617 440.117 404.997 457.453 412.381 470.664C417.589 465.711 433.076 451.207 443.356 441.646C456.795 429.473 474.786 414.614 486.723 404.789C497.695 395.703 518.9 378.358 529.79 370.391C536.717 365.482 574.078 342.473 598.2 327.618L600.554 326.168C608.985 322.608 633.532 312.255 649.648 305.463C659.855 301.211 662.468 300.182 673.576 296.613C683.464 293.426 711.425 285.714 723.344 282.919C737.165 280.069 757.06 276.873 767.767 275.772C778.302 274.879 802.576 274.397 815.059 275.744C821.751 276.473 834.425 278.831 840.416 280.461C846.389 282.1 857.643 286.26 862.914 288.792C868.186 291.332 878.01 297.305 882.572 300.728C887.125 304.17 895.519 311.955 899.371 316.289C903.204 320.632 910.178 330.21 913.311 335.446C916.443 340.699 921.988 352.09 924.41 358.226C929.272 370.627 934.889 394.182 936.756 405.481C938.258 415.688 940.216 438.105 940.607 449.713C940.78 461.75 940.17 487.08 939.396 500.328C938.295 513.977 935.454 539.452 934.034 550.843C932.413 561.605 928.47 585.997 926.149 599.636L923.153 609.197C919.821 613.594 911.143 626.906 902.148 636.867C897.759 641.711 888.126 650.952 882.863 655.359C878.193 659.256 866.301 667.988 861.084 671.411C852.963 676.592 834.862 686.553 825.365 691.051C815.568 695.512 796.812 702.905 783.41 707.54C771.946 711.164 747.818 717.847 735.18 720.888C722.115 723.738 694.9 728.827 680.368 731.122C659.327 734.272 646.279 735.565 626.722 736.967C614.63 737.723 589.4 737.951 578.41 737.686C567.676 737.158 546.734 735.319 536.555 734.017Z"
        stroke="#2F1000" stroke-width="3.5" stroke-linecap="round" stroke-linejoin="round" />
    <g opacity="0.18" filter="url(#filter0_f_47_578)">
        <ellipse cx="700.5" cy="504.5" rx="131.5" ry="72.5" fill="#EE9E49" />
    </g>
    <path d="M618 540.5C618 540.5 664.5 475.5 722 469.5C779.5 463.5 805 494.5 805 494.5" stroke="#EE9E49"
        stroke-width="10" stroke-linecap="round" stroke-linejoin="round" />
    <g opacity="0.18" filter="url(#filter1_f_47_578)">
        <ellipse cx="213.5" cy="490.5" rx="131.5" ry="72.5" fill="#EE9E49" />
    </g>
    <path d="M127.5 490.5C127.5 490.5 156.5 468 189.5 469C222.5 470 280.5 520.5 280.5 520.5" stroke="#EE9E49"
        stroke-width="10" stroke-linecap="round" />
    <path
        d="M461.029 895.385C466.279 851.219 472.686 810.705 480.249 773.842C484.62 752.548 489.376 732.475 494.517 713.622C494.687 713.015 494.854 712.408 495.018 711.801C499.691 694.811 504.672 678.831 509.959 663.863C505.449 656.633 500.802 649.811 496.019 643.395C463.15 599.296 423.92 574.664 378.328 569.499C371.463 568.722 364.452 568.385 357.295 568.488C351.723 590.698 348.099 612.286 346.424 633.252C344.882 652.627 345.004 671.468 346.788 689.776C347.262 694.619 347.85 699.427 348.555 704.198C351.869 726.584 357.751 748.151 366.2 768.898C374.522 789.336 385.339 808.972 398.65 827.807C410.293 844.281 423.838 860.145 439.286 875.399C446.157 882.185 453.405 888.847 461.029 895.385Z"
        fill="#D4652E" />
    <path
        d="M357.295 568.488C364.452 568.385 371.463 568.722 378.328 569.499C384.329 570.178 390.22 571.196 396 572.55C396 572.55 389.12 595.187 386 610C380.731 635.011 378.234 649.44 378.328 675C378.419 699.785 380.931 713.739 386 738C393.123 772.089 399.396 791.12 414.5 822.5C429.146 852.927 461.029 895.385 461.029 895.385C453.405 888.847 446.157 882.185 439.286 875.399C423.838 860.145 410.293 844.281 398.65 827.807C385.339 808.972 374.522 789.336 366.2 768.898C357.751 748.151 351.869 726.584 348.555 704.198C347.85 699.427 347.262 694.619 346.788 689.776C345.004 671.468 344.882 652.627 346.424 633.252C348.099 612.286 351.723 590.698 357.295 568.488Z"
        fill="#EE9E49" />
    <path
        d="M461.029 895.385C466.279 851.219 472.686 810.705 480.249 773.842C484.62 752.548 489.376 732.475 494.517 713.622C494.687 713.015 494.854 712.408 495.018 711.801C499.691 694.811 504.672 678.831 509.959 663.863C505.449 656.633 500.802 649.811 496.019 643.395C463.15 599.296 423.92 574.664 378.328 569.499C371.463 568.722 364.452 568.385 357.295 568.488C351.723 590.698 348.099 612.286 346.424 633.252C344.882 652.627 345.004 671.468 346.788 689.776C347.262 694.619 347.85 699.427 348.555 704.198C351.869 726.584 357.751 748.151 366.2 768.898C374.522 789.336 385.339 808.972 398.65 827.807C410.293 844.281 423.838 860.145 439.286 875.399C446.157 882.185 453.405 888.847 461.029 895.385Z"
        stroke="#2F1000" stroke-width="2.6568" stroke-linecap="round" stroke-linejoin="round" />
    <defs>
        <filter id="filter0_f_47_578" x="487.5" y="350.5" width="426" height="308" filterUnits="userSpaceOnUse"
            color-interpolation-filters="sRGB">
            <feFlood flood-opacity="0" result="BackgroundImageFix" />
            <feBlend mode="normal" in="SourceGraphic" in2="BackgroundImageFix" result="shape" />
            <feGaussianBlur stdDeviation="40.75" result="effect1_foregroundBlur_47_578" />
        </filter>
        <filter id="filter1_f_47_578" x="0.5" y="336.5" width="426" height="308" filterUnits="userSpaceOnUse"
            color-interpolation-filters="sRGB">
            <feFlood flood-opacity="0" result="BackgroundImageFix" />
            <feBlend mode="normal" in="SourceGraphic" in2="BackgroundImageFix" result="shape" />
            <feGaussianBlur stdDeviation="40.75" result="effect1_foregroundBlur_47_578" />
        </filter>
    </defs>
</svg>